<?xml version="1.0" encoding="utf-8"?>
<!-- Generator: Adobe Illustrator 14.0.0, SVG Export Plug-In . SVG Version: 6.00 Build 43363)  -->
<!DOCTYPE svg PUBLIC "-//W3C//DTD SVG 1.1//EN" "http://www.w3.org/Graphics/SVG/1.1/DTD/svg11.dtd">
<svg version="1.1" id="Layer_1" xmlns:sketch="http://www.bohemiancoding.com/sketch/ns"
	 xmlns="http://www.w3.org/2000/svg" xmlns:xlink="http://www.w3.org/1999/xlink" x="0px" y="0px" width="612px" height="792px"
	 viewBox="0 0 612 792" enable-background="new 0 0 612 792" xml:space="preserve">
<title>chart_bar_increase</title>
<description>Created with Sketch (http://www.bohemiancoding.com/sketch)</description>
<g sketch:type="MSPage">
	<path sketch:type="MSShapeGroup" d="M279.81,209.841l32.943,32.943l1.647-97.181l-97.182,1.647l32.943,32.943l-59.292,59.292
		c0,0-6.604,6.604,8.23,21.418s21.419,8.23,21.419,8.23L279.81,209.841z M438.406,172.376c-2.552,0-4.621,2.108-4.621,4.675v400.626
		c0,2.582,2.121,4.675,4.621,4.675h83.936c2.552,0,4.62-2.107,4.62-4.675V177.051c0-2.582-2.121-4.675-4.62-4.675H438.406z
		 M205.465,330.776c-2.552,0-4.621,2.1-4.621,4.69v242.195c0,2.591,2.121,4.69,4.621,4.69H289.4c2.552,0,4.621-2.099,4.621-4.69
		V335.467c0-2.59-2.122-4.69-4.621-4.69H205.465z M321.936,265.553c-2.552,0-4.621,2.107-4.621,4.662V577.69
		c0,2.575,2.122,4.662,4.621,4.662h83.936c2.552,0,4.62-2.106,4.62-4.662V270.215c0-2.575-2.121-4.662-4.62-4.662H321.936z
		 M88.995,409.977c-2.552,0-4.621,2.056-4.621,4.7v162.977c0,2.596,2.122,4.699,4.621,4.699h83.935c2.552,0,4.621-2.056,4.621-4.699
		V414.677c0-2.596-2.121-4.7-4.621-4.7H88.995z"/>
</g>
</svg>
