<?xml version="1.0" encoding="utf-8"?>
<!-- Generator: Adobe Illustrator 14.0.0, SVG Export Plug-In . SVG Version: 6.00 Build 43363)  -->
<!DOCTYPE svg PUBLIC "-//W3C//DTD SVG 1.1//EN" "http://www.w3.org/Graphics/SVG/1.1/DTD/svg11.dtd">
<svg version="1.1" id="Layer_1" xmlns="http://www.w3.org/2000/svg" xmlns:xlink="http://www.w3.org/1999/xlink" x="0px" y="0px"
	 width="612px" height="792px" viewBox="0 0 612 792" enable-background="new 0 0 612 792" xml:space="preserve">
<g>
	<path d="M399.893,178.571H217.641C128.307,267.163,17.206,406.398,74.301,507.975c45.118,80.276,147.12,101.033,246.083,99.654
		c98.962-1.38,194.882-24.915,227.819-99.654C590.321,412.42,482.89,269.353,399.893,178.571z M325.434,489.05v28.615h-27.489
		v-26.659c-18.793-0.834-37.022-5.891-47.685-12.062l8.411-32.811c11.785,6.447,28.334,12.334,46.567,12.334
		c15.984,0,26.928-6.163,26.928-17.391c0-10.647-8.976-17.388-29.733-24.403c-30.017-10.099-50.486-24.127-50.486-51.332
		c0-24.688,17.387-44.042,47.404-49.933v-26.644h27.485v24.68c18.793,0.846,31.424,4.776,40.676,9.265l-8.134,31.692
		c-7.293-3.089-20.2-9.537-40.393-9.537c-18.232,0-24.126,7.85-24.126,15.712c0,9.256,9.817,15.147,33.66,24.119
		c33.38,11.785,46.84,27.213,46.84,52.457C375.362,462.122,357.694,483.444,325.434,489.05z"/>
	<path d="M453.771,41.165c-25.007-15.159-55.781,39.504-77.748,38.659c-21.976-0.845-39.309-54.782-64.396-53.902
		c-25.087,0.88-35.012,49.967-55.143,54.567c-20.13,4.6-70.31-57.925-90.44-35.966c-16.308,17.795,33.591,88.903,53.122,115.267
		h17.844h145.38h16.714C419.574,131.862,474.256,53.58,453.771,41.165z"/>
</g>
</svg>
