<?xml version="1.0" encoding="utf-8"?>
<!-- Generator: Adobe Illustrator 14.0.0, SVG Export Plug-In . SVG Version: 6.00 Build 43363)  -->
<!DOCTYPE svg PUBLIC "-//W3C//DTD SVG 1.1//EN" "http://www.w3.org/Graphics/SVG/1.1/DTD/svg11.dtd">
<svg version="1.1" id="Layer_1" xmlns="http://www.w3.org/2000/svg" xmlns:xlink="http://www.w3.org/1999/xlink" x="0px" y="0px"
	 width="612px" height="792px" viewBox="0 0 612 792" enable-background="new 0 0 612 792" xml:space="preserve">
<g>
	<path fill="#010101" d="M325.858,432.338h225.388V607.65H325.858V432.338z"/>
	<path fill="#010101" d="M382.309,184.765c32.066-2.805,64.834-6.949,82.047-12.91c42.17-14.599,51.987-70.444,30.854-104.646
		c-21.133-34.202-75.479-50.363-107.387-19.189c-20.878,20.4-55.526,78.731-75.576,113.953
		c-20.017-35.222-54.697-93.553-75.575-113.953c-31.907-31.174-86.254-15.013-107.387,19.189
		c-21.165,34.202-11.316,90.047,30.855,104.646c17.181,5.96,49.98,10.104,82.046,12.91H34.202v100.948h35.636v118.99h228.417
		V189.864c2.327-0.063,7.172-0.255,13.993-0.542c6.566,0.287,11.188,0.446,13.611,0.542v214.838h225.388v-118.99h38.633V184.765
		H382.309z M312.247,184.35c-7.713,0.287-12.463,0.415-12.463,0.415s0.223-0.351,0.606-0.925
		c-32.162-1.434-87.337-4.781-109.65-11.347c-33.724-9.881-41.565-47.781-24.671-70.986c16.862-23.205,60.308-34.17,85.808-13.005
		c16.67,13.833,44.37,53.391,60.371,77.297c16.002-23.906,43.669-63.463,60.372-77.297c25.468-21.165,68.913-10.168,85.807,13.005
		c16.895,23.205,9.021,61.104-24.671,70.986c-22.312,6.566-77.488,9.913-109.649,11.347c0.382,0.574,0.573,0.925,0.573,0.925
		S319.993,184.637,312.247,184.35z"/>
	<path fill="#010101" d="M69.838,432.338h228.417V607.65H69.838V432.338z"/>
</g>
</svg>
