<svg xmlns="http://www.w3.org/2000/svg" width="612" height="792" viewBox="0 0 612 792"><g fill="#010101"><path d="M325.858 432.338h225.388V607.65H325.858V432.338zM382.31 184.765c32.065-2.805 64.833-6.95 82.046-12.91 42.17-14.6 51.987-70.444 30.854-104.646-21.133-34.203-75.48-50.364-107.387-19.19-20.878 20.4-55.526 78.73-75.576 113.953C292.23 126.75 257.55 68.42 236.672 48.02c-31.907-31.174-86.254-15.013-107.387 19.19-21.165 34.2-11.316 90.046 30.855 104.645 17.18 5.96 49.98 10.104 82.046 12.91H34.202v100.948h35.636v118.99h228.417v-214.84c2.327-.062 7.172-.254 13.993-.54 6.566.286 11.188.445 13.61.54v214.84h225.39v-118.99h38.632V184.764H382.31zm-70.063-.415c-7.713.287-12.463.415-12.463.415s.223-.35.606-.925c-32.162-1.434-87.337-4.78-109.65-11.347-33.724-9.88-41.565-47.78-24.67-70.986 16.86-23.205 60.307-34.17 85.807-13.005 16.67 13.833 44.37 53.39 60.37 77.297 16.003-23.907 43.67-63.464 60.373-77.298 25.468-21.165 68.913-10.168 85.807 13.005 16.895 23.205 9.02 61.104-24.67 70.986-22.313 6.566-77.49 9.913-109.65 11.347.382.574.573.925.573.925s-4.687-.128-12.433-.415zM69.838 432.338h228.417V607.65H69.838V432.338z"/></g></svg>