<svg xmlns="http://www.w3.org/2000/svg" width="612" height="792" viewBox="0 0 612 792"><title>chart_bar_increase</title><path d="M279.81 209.84l32.943 32.944 1.647-97.18-97.182 1.646 32.943 32.943-59.29 59.292s-6.605 6.604 8.23 21.418 21.418 8.23 21.418 8.23l59.292-59.292zm158.596-37.464c-2.552 0-4.62 2.108-4.62 4.675v400.627c0 2.582 2.12 4.675 4.62 4.675h83.936c2.552 0 4.62-2.107 4.62-4.675V177.05c0-2.58-2.12-4.674-4.62-4.674h-83.936zm-232.94 158.4c-2.553 0-4.622 2.1-4.622 4.69V577.66c0 2.592 2.12 4.69 4.62 4.69H289.4c2.552 0 4.62-2.098 4.62-4.69V335.468c0-2.59-2.12-4.69-4.62-4.69h-83.935zm116.47-65.223c-2.552 0-4.62 2.107-4.62 4.662V577.69c0 2.575 2.12 4.662 4.62 4.662h83.936c2.552 0 4.62-2.106 4.62-4.662V270.215c0-2.575-2.12-4.662-4.62-4.662h-83.936zM88.996 409.977c-2.553 0-4.622 2.056-4.622 4.7v162.977c0 2.596 2.122 4.7 4.62 4.7h83.936c2.552 0 4.62-2.057 4.62-4.7V414.677c0-2.596-2.12-4.7-4.62-4.7H88.995z"/></svg>