<svg xmlns="http://www.w3.org/2000/svg" width="612" height="792" viewBox="0 0 612 792"><path d="M399.893 178.57H217.64C128.308 267.164 17.207 406.4 74.3 507.976c45.12 80.276 147.12 101.033 246.084 99.654 98.962-1.38 194.882-24.916 227.82-99.655 42.117-95.555-65.314-238.622-148.31-329.404zm-74.46 310.48v28.615h-27.488v-26.66c-18.793-.833-37.022-5.89-47.685-12.06l8.41-32.812c11.786 6.447 28.335 12.334 46.568 12.334 15.984 0 26.928-6.163 26.928-17.39 0-10.648-8.976-17.39-29.733-24.404-30.017-10.1-50.486-24.127-50.486-51.332 0-24.687 17.387-44.04 47.404-49.932v-26.644h27.486v24.68c18.793.846 31.424 4.776 40.676 9.265l-8.134 31.69c-7.293-3.088-20.2-9.536-40.393-9.536-18.232 0-24.126 7.85-24.126 15.712 0 9.256 9.816 15.147 33.66 24.12 33.38 11.784 46.84 27.212 46.84 52.456.002 24.97-17.666 46.292-49.926 51.898zM453.77 41.165c-25.006-15.16-55.78 39.504-77.747 38.66-21.976-.846-39.31-54.783-64.396-53.903-25.087.88-35.012 49.967-55.143 54.567-20.13 4.6-70.31-57.926-90.44-35.967-16.308 17.795 33.59 88.903 53.122 115.267h179.938c20.47-27.928 75.152-106.21 54.667-118.625z"/></svg>